<svg width="759" height="420" viewBox="0 0 759 420" fill="none" xmlns="http://www.w3.org/2000/svg">
<path d="M234 104.267L156.933 181.333L93.4668 194.933L234 58.9333L256.667 86.1333V31.7333H306.533V77.0667L383.6 0L487.867 104.267L537.733 58.9333L660.133 190.4L610.267 181.333L533.2 104.267L510.533 126.933L555.867 172.267L487.867 167.733L383.6 63.4667L279.333 167.733L211.333 172.267L256.667 126.933L234 104.267Z" fill="url(#paint0_radial_92_309)"/>
<path d="M170.534 192.164C431.654 163.151 629.911 195.186 696.4 214.831C465.366 178.59 198.118 192.145 57.5033 214.782L70.8002 210.298C88.9335 203.044 144.845 195.187 170.534 192.164Z" fill="url(#paint1_radial_92_309)"/>
<path d="M153.783 220.032C438.977 189.353 655.514 223.228 728.133 244C475.798 205.679 183.91 220.012 30.331 243.948L44.8539 239.207C64.6591 231.537 125.725 223.228 153.783 220.032Z" fill="url(#paint2_radial_92_309)"/>
<path d="M93.625 407L120.562 359.438L135.219 407H129.125L126.062 395.469H106.094L99.875 407H93.625ZM108.531 390.75H124.844L119.344 372.5L108.531 390.75ZM136.625 402.844L139.812 399.062C140.854 400.75 142.031 402.021 143.344 402.875C144.677 403.708 146.146 404.125 147.75 404.125C149.542 404.125 150.958 403.719 152 402.906C153.062 402.073 153.594 400.958 153.594 399.562C153.594 398 152.115 396.542 149.156 395.188C148.406 394.833 147.812 394.542 147.375 394.312C144.646 393 142.833 391.781 141.938 390.656C141.042 389.531 140.594 388.115 140.594 386.406C140.594 383.781 141.562 381.625 143.5 379.938C145.438 378.229 147.927 377.375 150.969 377.375C152.885 377.375 154.656 377.729 156.281 378.438C157.906 379.146 159.375 380.198 160.688 381.594L157.688 385.188C156.812 384.021 155.781 383.146 154.594 382.562C153.406 381.958 152.083 381.656 150.625 381.656C149.188 381.656 147.969 382.073 146.969 382.906C145.969 383.719 145.469 384.688 145.469 385.812C145.469 387.354 147.24 388.885 150.781 390.406L151.281 390.625C154.094 391.833 155.979 393.031 156.938 394.219C157.896 395.406 158.375 396.958 158.375 398.875C158.375 401.771 157.438 404.052 155.562 405.719C153.688 407.385 151.125 408.219 147.875 408.219C145.458 408.219 143.333 407.781 141.5 406.906C139.667 406.031 138.042 404.677 136.625 402.844ZM192.188 393.531L169.281 393.562V394.062C169.281 397.125 170.062 399.542 171.625 401.312C173.188 403.062 175.323 403.938 178.031 403.938C179.719 403.938 181.271 403.531 182.688 402.719C184.104 401.906 185.479 400.646 186.812 398.938L190.25 401.75C188.583 403.917 186.75 405.542 184.75 406.625C182.75 407.688 180.573 408.219 178.219 408.219C173.948 408.219 170.552 406.938 168.031 404.375C165.531 401.792 164.281 398.312 164.281 393.938C164.281 389.167 165.74 385.219 168.656 382.094C171.573 378.948 175.229 377.375 179.625 377.375C183.625 377.375 186.729 378.594 188.938 381.031C191.146 383.469 192.25 386.896 192.25 391.312C192.25 391.917 192.24 392.375 192.219 392.688C192.219 393 192.208 393.281 192.188 393.531ZM187.438 389.469C187.396 386.885 186.688 384.896 185.312 383.5C183.958 382.104 182.042 381.406 179.562 381.406C177.104 381.406 174.979 382.135 173.188 383.594C171.417 385.052 170.26 387.01 169.719 389.469H187.438ZM195.375 402.844L198.562 399.062C199.604 400.75 200.781 402.021 202.094 402.875C203.427 403.708 204.896 404.125 206.5 404.125C208.292 404.125 209.708 403.719 210.75 402.906C211.812 402.073 212.344 400.958 212.344 399.562C212.344 398 210.865 396.542 207.906 395.188C207.156 394.833 206.562 394.542 206.125 394.312C203.396 393 201.583 391.781 200.688 390.656C199.792 389.531 199.344 388.115 199.344 386.406C199.344 383.781 200.312 381.625 202.25 379.938C204.188 378.229 206.677 377.375 209.719 377.375C211.635 377.375 213.406 377.729 215.031 378.438C216.656 379.146 218.125 380.198 219.438 381.594L216.438 385.188C215.562 384.021 214.531 383.146 213.344 382.562C212.156 381.958 210.833 381.656 209.375 381.656C207.938 381.656 206.719 382.073 205.719 382.906C204.719 383.719 204.219 384.688 204.219 385.812C204.219 387.354 205.99 388.885 209.531 390.406L210.031 390.625C212.844 391.833 214.729 393.031 215.688 394.219C216.646 395.406 217.125 396.958 217.125 398.875C217.125 401.771 216.188 404.052 214.312 405.719C212.438 407.385 209.875 408.219 206.625 408.219C204.208 408.219 202.083 407.781 200.25 406.906C198.417 406.031 196.792 404.677 195.375 402.844ZM238.906 381.406C235.76 381.406 233.156 382.573 231.094 384.906C229.052 387.219 228.031 390.167 228.031 393.75C228.031 396.896 228.917 399.438 230.688 401.375C232.479 403.292 234.833 404.25 237.75 404.25C240.875 404.25 243.458 403.094 245.5 400.781C247.542 398.469 248.562 395.531 248.562 391.969C248.562 388.885 247.656 386.354 245.844 384.375C244.052 382.396 241.74 381.406 238.906 381.406ZM223.031 393.875C223.031 389.188 224.573 385.271 227.656 382.125C230.74 378.958 234.573 377.375 239.156 377.375C243.302 377.375 246.729 378.688 249.438 381.312C252.146 383.917 253.5 387.167 253.5 391.062C253.5 396.146 252 400.281 249 403.469C246.021 406.635 242.167 408.219 237.438 408.219C233.083 408.219 229.594 406.906 226.969 404.281C224.344 401.656 223.031 398.188 223.031 393.875ZM276.969 383.062C276.427 382.792 275.875 382.583 275.312 382.438C274.75 382.292 274.188 382.219 273.625 382.219C271.438 382.219 269.698 383.135 268.406 384.969C267.135 386.802 266.24 389.646 265.719 393.5L263.906 407H259.062L262.812 378.406H267.75L266.969 382.938C268.281 381 269.604 379.594 270.938 378.719C272.292 377.823 273.771 377.375 275.375 377.375C275.833 377.375 276.302 377.427 276.781 377.531C277.281 377.635 277.771 377.792 278.25 378L276.969 383.062ZM294.375 403.594C297.167 403.594 299.521 402.438 301.438 400.125C303.375 397.812 304.344 394.938 304.344 391.5C304.344 388.604 303.583 386.26 302.062 384.469C300.562 382.677 298.594 381.781 296.156 381.781C292.99 381.781 290.396 382.906 288.375 385.156C286.354 387.406 285.344 390.271 285.344 393.75C285.344 396.688 286.177 399.062 287.844 400.875C289.531 402.688 291.708 403.594 294.375 403.594ZM306.219 378.406H311.125L307.375 407H302.375L303.062 402.719C301.688 404.573 300.146 405.948 298.438 406.844C296.75 407.719 294.823 408.156 292.656 408.156C288.99 408.156 286.01 406.823 283.719 404.156C281.427 401.49 280.281 398.021 280.281 393.75C280.281 389.021 281.677 385.115 284.469 382.031C287.26 378.927 290.771 377.375 295 377.375C297.542 377.375 299.677 377.938 301.406 379.062C303.135 380.188 304.479 381.885 305.438 384.156L306.219 378.406ZM339.719 364.875C339.719 363.958 340.052 363.167 340.719 362.5C341.406 361.833 342.219 361.5 343.156 361.5C344.115 361.5 344.917 361.833 345.562 362.5C346.229 363.146 346.562 363.938 346.562 364.875C346.562 365.854 346.229 366.677 345.562 367.344C344.917 368.01 344.115 368.344 343.156 368.344C342.219 368.344 341.406 368.01 340.719 367.344C340.052 366.656 339.719 365.833 339.719 364.875ZM335.625 407L339.406 378.406H344.375L340.594 407H335.625ZM350.875 407L354.625 378.406H359.375L358.719 383.062C360.323 381.125 362 379.698 363.75 378.781C365.5 377.844 367.417 377.375 369.5 377.375C372.229 377.375 374.385 378.125 375.969 379.625C377.573 381.125 378.375 383.167 378.375 385.75C378.375 386.208 378.354 386.708 378.312 387.25C378.271 387.792 378.208 388.354 378.125 388.938L375.75 407H370.75L373 389.469C373.021 389.323 373.042 389.125 373.062 388.875C373.188 387.854 373.25 387.177 373.25 386.844C373.25 385.135 372.729 383.833 371.688 382.938C370.646 382.042 369.125 381.594 367.125 381.594C364.5 381.594 362.385 382.531 360.781 384.406C359.177 386.26 358.135 388.969 357.656 392.531L355.719 407H350.875ZM403.281 407L405.594 389.438C405.656 389 405.698 388.562 405.719 388.125C405.76 387.688 405.781 387.26 405.781 386.844C405.781 385.115 405.333 383.812 404.438 382.938C403.562 382.042 402.26 381.594 400.531 381.594C398.281 381.594 396.479 382.51 395.125 384.344C393.792 386.156 392.885 388.885 392.406 392.531L390.469 407H385.562L389.375 378.406H394.125L393.469 382.812C394.823 380.979 396.302 379.615 397.906 378.719C399.51 377.823 401.26 377.375 403.156 377.375C405.073 377.375 406.698 377.854 408.031 378.812C409.365 379.75 410.25 381.062 410.688 382.75C412.125 380.958 413.688 379.615 415.375 378.719C417.083 377.823 418.896 377.375 420.812 377.375C423.25 377.375 425.177 378.125 426.594 379.625C428.031 381.125 428.75 383.167 428.75 385.75C428.75 386.354 428.677 387.312 428.531 388.625C428.51 388.771 428.5 388.875 428.5 388.938L426.125 407H421.125L423.438 389.469C423.5 389.031 423.542 388.594 423.562 388.156C423.604 387.719 423.625 387.281 423.625 386.844C423.625 385.115 423.177 383.812 422.281 382.938C421.406 382.042 420.104 381.594 418.375 381.594C416.062 381.594 414.25 382.469 412.938 384.219C411.646 385.969 410.75 388.74 410.25 392.531L408.344 407H403.281ZM450.969 381.406C447.823 381.406 445.219 382.573 443.156 384.906C441.115 387.219 440.094 390.167 440.094 393.75C440.094 396.896 440.979 399.438 442.75 401.375C444.542 403.292 446.896 404.25 449.812 404.25C452.938 404.25 455.521 403.094 457.562 400.781C459.604 398.469 460.625 395.531 460.625 391.969C460.625 388.885 459.719 386.354 457.906 384.375C456.115 382.396 453.802 381.406 450.969 381.406ZM435.094 393.875C435.094 389.188 436.635 385.271 439.719 382.125C442.802 378.958 446.635 377.375 451.219 377.375C455.365 377.375 458.792 378.688 461.5 381.312C464.208 383.917 465.562 387.167 465.562 391.062C465.562 396.146 464.062 400.281 461.062 403.469C458.083 406.635 454.229 408.219 449.5 408.219C445.146 408.219 441.656 406.906 439.031 404.281C436.406 401.656 435.094 398.188 435.094 393.875ZM487.438 382.094C484.646 382.094 482.281 383.25 480.344 385.562C478.406 387.854 477.438 390.708 477.438 394.125C477.438 397.042 478.198 399.396 479.719 401.188C481.24 402.979 483.208 403.875 485.625 403.875C488.812 403.875 491.417 402.75 493.438 400.5C495.458 398.25 496.469 395.385 496.469 391.906C496.469 388.969 495.635 386.604 493.969 384.812C492.302 383 490.125 382.094 487.438 382.094ZM475.719 407H470.656L477.062 358.562H482.062L478.781 382.875C480.115 381.062 481.635 379.708 483.344 378.812C485.073 377.896 486.99 377.438 489.094 377.438C492.823 377.438 495.823 378.771 498.094 381.438C500.365 384.104 501.5 387.656 501.5 392.094C501.5 393.969 501.177 395.833 500.531 397.688C499.906 399.542 499 401.26 497.812 402.844C496.521 404.552 494.917 405.875 493 406.812C491.083 407.75 489.031 408.219 486.844 408.219C484.344 408.219 482.219 407.656 480.469 406.531C478.74 405.385 477.396 403.688 476.438 401.438L475.719 407ZM511.719 364.875C511.719 363.958 512.052 363.167 512.719 362.5C513.406 361.833 514.219 361.5 515.156 361.5C516.115 361.5 516.917 361.833 517.562 362.5C518.229 363.146 518.562 363.938 518.562 364.875C518.562 365.854 518.229 366.677 517.562 367.344C516.917 368.01 516.115 368.344 515.156 368.344C514.219 368.344 513.406 368.01 512.719 367.344C512.052 366.656 511.719 365.833 511.719 364.875ZM507.625 407L511.406 378.406H516.375L512.594 407H507.625ZM528.031 407H523L529.375 358.562H534.375L528.031 407ZM542.594 364.875C542.594 363.958 542.927 363.167 543.594 362.5C544.281 361.833 545.094 361.5 546.031 361.5C546.99 361.5 547.792 361.833 548.438 362.5C549.104 363.146 549.438 363.938 549.438 364.875C549.438 365.854 549.104 366.677 548.438 367.344C547.792 368.01 546.99 368.344 546.031 368.344C545.094 368.344 544.281 368.01 543.594 367.344C542.927 366.656 542.594 365.833 542.594 364.875ZM538.5 407L542.281 378.406H547.25L543.469 407H538.5ZM567.438 403.594C570.229 403.594 572.583 402.438 574.5 400.125C576.438 397.812 577.406 394.938 577.406 391.5C577.406 388.604 576.646 386.26 575.125 384.469C573.625 382.677 571.656 381.781 569.219 381.781C566.052 381.781 563.458 382.906 561.438 385.156C559.417 387.406 558.406 390.271 558.406 393.75C558.406 396.688 559.24 399.062 560.906 400.875C562.594 402.688 564.771 403.594 567.438 403.594ZM579.281 378.406H584.188L580.438 407H575.438L576.125 402.719C574.75 404.573 573.208 405.948 571.5 406.844C569.812 407.719 567.885 408.156 565.719 408.156C562.052 408.156 559.073 406.823 556.781 404.156C554.49 401.49 553.344 398.021 553.344 393.75C553.344 389.021 554.74 385.115 557.531 382.031C560.323 378.927 563.833 377.375 568.062 377.375C570.604 377.375 572.74 377.938 574.469 379.062C576.198 380.188 577.542 381.885 578.5 384.156L579.281 378.406ZM607.969 383.062C607.427 382.792 606.875 382.583 606.312 382.438C605.75 382.292 605.188 382.219 604.625 382.219C602.438 382.219 600.698 383.135 599.406 384.969C598.135 386.802 597.24 389.646 596.719 393.5L594.906 407H590.062L593.812 378.406H598.75L597.969 382.938C599.281 381 600.604 379.594 601.938 378.719C603.292 377.823 604.771 377.375 606.375 377.375C606.833 377.375 607.302 377.427 607.781 377.531C608.281 377.635 608.771 377.792 609.25 378L607.969 383.062ZM615.969 364.875C615.969 363.958 616.302 363.167 616.969 362.5C617.656 361.833 618.469 361.5 619.406 361.5C620.365 361.5 621.167 361.833 621.812 362.5C622.479 363.146 622.812 363.938 622.812 364.875C622.812 365.854 622.479 366.677 621.812 367.344C621.167 368.01 620.365 368.344 619.406 368.344C618.469 368.344 617.656 368.01 616.969 367.344C616.302 366.656 615.969 365.833 615.969 364.875ZM611.875 407L615.656 378.406H620.625L616.844 407H611.875ZM640.812 403.594C643.604 403.594 645.958 402.438 647.875 400.125C649.812 397.812 650.781 394.938 650.781 391.5C650.781 388.604 650.021 386.26 648.5 384.469C647 382.677 645.031 381.781 642.594 381.781C639.427 381.781 636.833 382.906 634.812 385.156C632.792 387.406 631.781 390.271 631.781 393.75C631.781 396.688 632.615 399.062 634.281 400.875C635.969 402.688 638.146 403.594 640.812 403.594ZM652.656 378.406H657.562L653.812 407H648.812L649.5 402.719C648.125 404.573 646.583 405.948 644.875 406.844C643.188 407.719 641.26 408.156 639.094 408.156C635.427 408.156 632.448 406.823 630.156 404.156C627.865 401.49 626.719 398.021 626.719 393.75C626.719 389.021 628.115 385.115 630.906 382.031C633.698 378.927 637.208 377.375 641.438 377.375C643.979 377.375 646.115 377.938 647.844 379.062C649.573 380.188 650.917 381.885 651.875 384.156L652.656 378.406Z" fill="white"/>
<path d="M36.375 319V261.812H49.8125C53.6406 261.812 56.4401 262.034 58.2109 262.477C60.0078 262.893 61.5833 263.622 62.9375 264.664C64.6302 265.992 65.9453 267.776 66.8828 270.016C67.8203 272.229 68.2891 274.69 68.2891 277.398C68.2891 282.086 66.974 285.654 64.3438 288.102C61.7396 290.523 57.9115 291.734 52.8594 291.734H51.6484L73.4844 319H64.8516L43.9922 291.734H43.0156V319H36.375ZM43.0156 267.555V286.695H48.2109C53.5234 286.695 57.0781 286.018 58.875 284.664C60.6719 283.284 61.5703 280.888 61.5703 277.477C61.5703 273.805 60.6458 271.24 58.7969 269.781C56.9479 268.297 53.4193 267.555 48.2109 267.555H43.0156ZM107.117 314.117C110.242 314.117 113.211 313.531 116.023 312.359C118.862 311.161 121.414 309.43 123.68 307.164C125.919 304.924 127.625 302.385 128.797 299.547C129.969 296.708 130.555 293.701 130.555 290.523C130.555 287.32 129.956 284.273 128.758 281.383C127.586 278.492 125.893 275.94 123.68 273.727C121.44 271.487 118.901 269.781 116.062 268.609C113.25 267.438 110.268 266.852 107.117 266.852C103.94 266.852 100.932 267.438 98.0938 268.609C95.2552 269.781 92.7422 271.487 90.5547 273.727C88.3151 275.992 86.6094 278.557 85.4375 281.422C84.2656 284.286 83.6797 287.32 83.6797 290.523C83.6797 293.701 84.2526 296.695 85.3984 299.508C86.5703 302.32 88.2891 304.872 90.5547 307.164C92.8464 309.456 95.3854 311.188 98.1719 312.359C100.984 313.531 103.966 314.117 107.117 314.117ZM137.664 290.523C137.664 294.612 136.909 298.466 135.398 302.086C133.888 305.706 131.688 308.922 128.797 311.734C125.906 314.547 122.573 316.721 118.797 318.258C115.047 319.768 111.154 320.523 107.117 320.523C103.081 320.523 99.1875 319.768 95.4375 318.258C91.7135 316.721 88.4062 314.547 85.5156 311.734C82.599 308.896 80.3724 305.667 78.8359 302.047C77.3255 298.427 76.5703 294.586 76.5703 290.523C76.5703 286.435 77.3255 282.581 78.8359 278.961C80.3724 275.315 82.599 272.073 85.5156 269.234C88.3802 266.448 91.6875 264.299 95.4375 262.789C99.1875 261.279 103.081 260.523 107.117 260.523C111.18 260.523 115.086 261.279 118.836 262.789C122.612 264.299 125.932 266.448 128.797 269.234C131.688 272.047 133.888 275.276 135.398 278.922C136.909 282.542 137.664 286.409 137.664 290.523ZM195.203 275.484C192.469 272.516 189.552 270.328 186.453 268.922C183.354 267.49 179.93 266.773 176.18 266.773C173.159 266.773 170.203 267.385 167.312 268.609C164.448 269.833 161.961 271.539 159.852 273.727C157.664 275.992 156.023 278.531 154.93 281.344C153.836 284.13 153.289 287.216 153.289 290.602C153.289 293.258 153.615 295.706 154.266 297.945C154.917 300.185 155.893 302.242 157.195 304.117C159.487 307.372 162.299 309.885 165.633 311.656C168.992 313.401 172.612 314.273 176.492 314.273C180.138 314.273 183.523 313.518 186.648 312.008C189.773 310.497 192.625 308.245 195.203 305.25V314.273C192.365 316.331 189.305 317.893 186.023 318.961C182.768 320.003 179.396 320.523 175.906 320.523C172.885 320.523 169.943 320.068 167.078 319.156C164.214 318.271 161.531 316.969 159.031 315.25C154.865 312.359 151.674 308.805 149.461 304.586C147.273 300.367 146.18 295.732 146.18 290.68C146.18 286.279 146.909 282.281 148.367 278.688C149.852 275.068 152.104 271.786 155.125 268.844C158.042 266.031 161.271 263.935 164.812 262.555C168.354 261.148 172.221 260.445 176.414 260.445C179.721 260.445 182.924 260.953 186.023 261.969C189.122 262.958 192.182 264.508 195.203 266.617V275.484ZM206.922 319V261.812H213.719V319H206.922ZM255.477 314.117C258.602 314.117 261.57 313.531 264.383 312.359C267.221 311.161 269.773 309.43 272.039 307.164C274.279 304.924 275.984 302.385 277.156 299.547C278.328 296.708 278.914 293.701 278.914 290.523C278.914 287.32 278.315 284.273 277.117 281.383C275.945 278.492 274.253 275.94 272.039 273.727C269.799 271.487 267.26 269.781 264.422 268.609C261.609 267.438 258.628 266.852 255.477 266.852C252.299 266.852 249.292 267.438 246.453 268.609C243.615 269.781 241.102 271.487 238.914 273.727C236.674 275.992 234.969 278.557 233.797 281.422C232.625 284.286 232.039 287.32 232.039 290.523C232.039 293.701 232.612 296.695 233.758 299.508C234.93 302.32 236.648 304.872 238.914 307.164C241.206 309.456 243.745 311.188 246.531 312.359C249.344 313.531 252.326 314.117 255.477 314.117ZM286.023 290.523C286.023 294.612 285.268 298.466 283.758 302.086C282.247 305.706 280.047 308.922 277.156 311.734C274.266 314.547 270.932 316.721 267.156 318.258C263.406 319.768 259.513 320.523 255.477 320.523C251.44 320.523 247.547 319.768 243.797 318.258C240.073 316.721 236.766 314.547 233.875 311.734C230.958 308.896 228.732 305.667 227.195 302.047C225.685 298.427 224.93 294.586 224.93 290.523C224.93 286.435 225.685 282.581 227.195 278.961C228.732 275.315 230.958 272.073 233.875 269.234C236.74 266.448 240.047 264.299 243.797 262.789C247.547 261.279 251.44 260.523 255.477 260.523C259.539 260.523 263.445 261.279 267.195 262.789C270.971 264.299 274.292 266.448 277.156 269.234C280.047 272.047 282.247 275.276 283.758 278.922C285.268 282.542 286.023 286.409 286.023 290.523ZM352.195 289.469H375.789V291.383C375.789 300.393 373.237 307.503 368.133 312.711C363.029 317.919 356.062 320.523 347.234 320.523C344.552 320.523 341.987 320.237 339.539 319.664C337.117 319.091 334.878 318.258 332.82 317.164C328.133 314.586 324.513 311.031 321.961 306.5C319.409 301.943 318.133 296.773 318.133 290.992C318.133 286.227 318.888 281.93 320.398 278.102C321.935 274.247 324.24 270.862 327.312 267.945C329.891 265.497 332.885 263.648 336.297 262.398C339.708 261.148 343.484 260.523 347.625 260.523C353.12 260.523 357.885 261.526 361.922 263.531C365.958 265.51 369.305 268.505 371.961 272.516L366.258 277.086C364.201 273.622 361.635 271.031 358.562 269.312C355.49 267.568 351.922 266.695 347.859 266.695C341.219 266.695 335.828 268.935 331.688 273.414C327.547 277.893 325.477 283.753 325.477 290.992C325.477 297.815 327.573 303.414 331.766 307.789C335.984 312.164 341.349 314.352 347.859 314.352C353.589 314.352 358.354 312.62 362.156 309.156C365.984 305.667 368.107 301.135 368.523 295.562H352.195V289.469ZM413.836 314.117C416.961 314.117 419.93 313.531 422.742 312.359C425.581 311.161 428.133 309.43 430.398 307.164C432.638 304.924 434.344 302.385 435.516 299.547C436.688 296.708 437.273 293.701 437.273 290.523C437.273 287.32 436.674 284.273 435.477 281.383C434.305 278.492 432.612 275.94 430.398 273.727C428.159 271.487 425.62 269.781 422.781 268.609C419.969 267.438 416.987 266.852 413.836 266.852C410.659 266.852 407.651 267.438 404.812 268.609C401.974 269.781 399.461 271.487 397.273 273.727C395.034 275.992 393.328 278.557 392.156 281.422C390.984 284.286 390.398 287.32 390.398 290.523C390.398 293.701 390.971 296.695 392.117 299.508C393.289 302.32 395.008 304.872 397.273 307.164C399.565 309.456 402.104 311.188 404.891 312.359C407.703 313.531 410.685 314.117 413.836 314.117ZM444.383 290.523C444.383 294.612 443.628 298.466 442.117 302.086C440.607 305.706 438.406 308.922 435.516 311.734C432.625 314.547 429.292 316.721 425.516 318.258C421.766 319.768 417.872 320.523 413.836 320.523C409.799 320.523 405.906 319.768 402.156 318.258C398.432 316.721 395.125 314.547 392.234 311.734C389.318 308.896 387.091 305.667 385.555 302.047C384.044 298.427 383.289 294.586 383.289 290.523C383.289 286.435 384.044 282.581 385.555 278.961C387.091 275.315 389.318 272.073 392.234 269.234C395.099 266.448 398.406 264.299 402.156 262.789C405.906 261.279 409.799 260.523 413.836 260.523C417.898 260.523 421.805 261.279 425.555 262.789C429.331 264.299 432.651 266.448 435.516 269.234C438.406 272.047 440.607 275.276 442.117 278.922C443.628 282.542 444.383 286.409 444.383 290.523ZM455.516 319V259.547L497.352 305.25V261.812H503.836V321.227L462 276.031V319H455.516ZM510.281 319L542.43 268.023H516.336V261.812H553.953L522.117 312.516H552.664V319H510.281ZM580.945 274.586L571.844 295.641H590.047L580.945 274.586ZM580.945 259.547L606.961 319H599.578L592.156 301.461H569.812L562.391 319H555.008L580.945 259.547ZM612.859 319V261.812H619.656V312.516H641.258V319H612.859ZM649.344 319V261.812H679.5V268.023H656.141V284.43H679.5V290.758H656.141V312.672H679.5V319H649.344ZM683.797 319L715.945 268.023H689.852V261.812H727.469L695.633 312.516H726.18V319H683.797Z" fill="url(#paint3_radial_92_309)"/>
<defs>
<radialGradient id="paint0_radial_92_309" cx="0" cy="0" r="1" gradientUnits="userSpaceOnUse" gradientTransform="translate(360.933 4.53333) rotate(45.8303) scale(221.206 643.041)">
<stop stop-color="#FBFECB"/>
<stop offset="1" stop-color="#B99800"/>
</radialGradient>
<radialGradient id="paint1_radial_92_309" cx="0" cy="0" r="1" gradientUnits="userSpaceOnUse" gradientTransform="translate(288.4 164.964) rotate(165.005) scale(262.816 4898.07)">
<stop stop-color="#FCFEC6"/>
<stop offset="0.5" stop-color="#D4BB16"/>
<stop offset="1" stop-color="#5D3C00"/>
</radialGradient>
<radialGradient id="paint2_radial_92_309" cx="0" cy="0" r="1" gradientUnits="userSpaceOnUse" gradientTransform="translate(282.516 191.271) rotate(165.462) scale(286.444 5190.18)">
<stop stop-color="#FCFEC6"/>
<stop offset="0.5" stop-color="#D4BB16"/>
<stop offset="1" stop-color="#5D3C00"/>
</radialGradient>
<radialGradient id="paint3_radial_92_309" cx="0" cy="0" r="1" gradientUnits="userSpaceOnUse" gradientTransform="translate(139.569 309.826) rotate(-4.40996) scale(495.329 67.873)">
<stop stop-color="#FCFEC6"/>
<stop offset="0.5" stop-color="#D4BB16"/>
<stop offset="1" stop-color="#5D3C00"/>
</radialGradient>
</defs>
</svg>
