<svg width="144" height="144" viewBox="0 0 144 144" fill="none" xmlns="http://www.w3.org/2000/svg">
<path d="M72.0631 35.313C70.7968 35.313 69.5443 35.3776 68.3103 35.504C67.0763 35.6304 65.8593 35.8177 64.6631 36.0635C63.4669 36.3094 62.2919 36.6139 61.1405 36.9733L57.7608 38.2142L54.5431 39.7679L51.5067 41.6155L48.6696 43.7376L46.0516 46.1157L43.6712 48.7314L41.5468 51.5653L39.6969 54.5989L38.1423 57.8129C37.675 58.9122 37.2593 60.0393 36.8995 61.1898C36.5397 62.3403 36.2352 63.5148 35.9888 64.7097C35.7425 65.9045 35.5552 67.12 35.4283 68.3532C35.3015 69.5863 35.2378 70.8374 35.2378 72.1023C35.2378 73.3672 35.3024 74.6183 35.4283 75.8514C35.5536 77.0748 35.7406 78.291 35.9888 79.4954C36.2352 80.6948 36.5397 81.8647 36.8995 83.0153C37.2593 84.1658 37.6745 85.2924 38.1423 86.3921L39.6969 89.6062L41.5468 92.6393L43.6712 95.4737L46.0516 98.0894L48.6696 100.468L51.5067 102.59L54.5431 104.437L57.7608 105.991L61.1405 107.232L64.6631 108.142C65.8686 108.39 67.0859 108.577 68.3103 108.702C69.5572 108.829 70.8098 108.893 72.0631 108.892C73.3294 108.892 74.5819 108.828 75.8155 108.702C77.0399 108.577 78.2572 108.39 79.4627 108.142L82.9858 107.232L86.3654 105.991L89.5827 104.437L92.6195 102.59L95.4566 100.468L98.0751 98.0894L100.456 95.4737L102.58 92.6393L104.43 89.6062L105.985 86.3921L107.227 83.0153C107.587 81.8647 107.892 80.6902 108.138 79.4954L108.698 75.851C108.825 74.6179 108.889 73.3668 108.889 72.1018C108.889 70.8369 108.825 69.5858 108.698 68.3527C108.573 67.1295 108.386 65.9135 108.138 64.7092C107.892 63.5098 107.587 62.3403 107.227 61.1893L105.985 57.8125L104.43 54.5984L102.58 51.5648L100.456 48.7309L98.0751 46.1152L95.4566 43.7371L92.6195 41.6151L89.5827 39.7675L86.3654 38.2138L82.9858 36.9728L79.4627 36.0631L75.8155 35.5035C74.5688 35.3762 73.3163 35.3129 72.0631 35.313ZM72.0631 48.0113C72.9004 48.0113 73.7266 48.0528 74.5404 48.1349L76.9393 48.498L79.2565 49.0884L81.4754 49.8944L83.585 50.9047L85.5687 52.1064L87.4232 53.489L89.1329 55.0399L90.6852 56.7477L92.0692 58.6004L93.2723 60.5868L94.2826 62.6951C94.5861 63.4166 94.8555 64.1561 95.0899 64.9122C95.3242 65.6683 95.5212 66.441 95.6804 67.228C95.8395 68.015 95.9572 68.8159 96.0434 69.6292L96.1671 72.1046C96.1671 72.941 96.1256 73.7667 96.0434 74.5805C95.9613 75.3943 95.8405 76.1951 95.6804 76.9817C95.5203 77.7682 95.3229 78.5409 95.0899 79.2975L94.2826 81.5146L93.2723 83.6228L92.0692 85.6088L90.6852 87.4619L89.1329 89.1697L87.4232 90.7207L85.5687 92.1033L83.585 93.305L81.4754 94.3153L79.2565 95.1212L76.9393 95.7117L74.5404 96.0743C73.7171 96.1568 72.8901 96.1981 72.0627 96.198C71.235 96.1981 70.4079 96.1568 69.5845 96.0743L67.1856 95.7117C66.3981 95.5521 65.6249 95.3547 64.8679 95.1212L62.649 94.3153L60.5394 93.305L58.5557 92.1033L56.7012 90.7207L54.9915 89.1697L53.4392 87.4619L52.0552 85.6088L50.8521 83.6228L49.8418 81.5146L49.0345 79.2975L48.444 76.9817L48.081 74.5805C47.9984 73.7578 47.9571 72.9315 47.9573 72.1046C47.9571 71.2779 47.9984 70.4517 48.081 69.6292C48.1626 68.8159 48.2839 68.0145 48.444 67.228C48.6025 66.4469 48.7997 65.6741 49.035 64.9126L49.8423 62.6955L50.8526 60.5873L52.0557 58.6009L53.4396 56.7482L54.992 55.0404L56.7016 53.4894L58.5561 52.1069L60.5398 50.9051L62.6494 49.8948C63.3755 49.5899 64.1163 49.3209 64.8688 49.0889L67.1865 48.4984C67.974 48.3388 68.7758 48.217 69.5854 48.1354C70.4089 48.0529 71.2355 48.0112 72.0631 48.0113Z" fill="url(#paint0_radial_9_19)"/>
<path d="M110.382 24.8477C110.09 24.8477 109.798 24.8625 109.507 24.892C109.216 24.9214 108.927 24.9654 108.64 25.0239C108.354 25.0824 108.07 25.1552 107.791 25.2421C107.511 25.3291 107.237 25.4301 106.967 25.5447C106.698 25.6595 106.435 25.7878 106.178 25.929C105.921 26.07 105.672 26.2238 105.431 26.3899C105.189 26.5561 104.956 26.7344 104.733 26.9241C104.509 27.1136 104.295 27.3142 104.091 27.5252C103.888 27.7363 103.695 27.9576 103.513 28.1881C103.331 28.4187 103.161 28.6582 103.003 28.9059C102.845 29.1534 102.7 29.4087 102.567 29.6708C102.435 29.9331 102.315 30.2019 102.209 30.4763C102.103 30.7505 102.011 31.03 101.932 31.3135C101.854 31.5971 101.79 31.8844 101.741 32.1744C101.691 32.4643 101.656 32.7565 101.635 33.05C101.62 33.2578 101.613 33.4662 101.613 33.6746C101.613 33.969 101.627 34.2632 101.657 34.5562C101.686 34.849 101.73 35.1401 101.788 35.4285C101.846 35.7169 101.918 36.0022 102.004 36.2833C102.091 36.5645 102.191 36.8412 102.305 37.1123C102.419 37.3835 102.546 37.6488 102.687 37.9072C102.827 38.1655 102.98 38.4166 103.145 38.6596C103.31 38.9024 103.487 39.1367 103.675 39.3617C103.864 39.5869 104.063 39.8025 104.273 40.0076C104.483 40.2126 104.702 40.4069 104.932 40.5898C105.161 40.7728 105.399 40.9441 105.645 41.1032C105.891 41.2623 106.145 41.4089 106.405 41.5424C106.666 41.676 106.933 41.7964 107.205 41.9031C107.478 42.0098 107.755 42.1026 108.037 42.1813C108.319 42.2599 108.604 42.3243 108.892 42.3741C109.18 42.4242 109.471 42.4598 109.762 42.4807C109.969 42.4955 110.176 42.5028 110.383 42.5029C110.675 42.5029 110.968 42.4883 111.259 42.459C111.549 42.4296 111.839 42.3856 112.125 42.3271C112.412 42.2687 112.695 42.1958 112.975 42.1089C113.254 42.0219 113.529 41.9209 113.798 41.8063C114.067 41.6916 114.331 41.5635 114.587 41.4224C114.844 41.2813 115.093 41.1273 115.335 40.9611C115.576 40.795 115.809 40.6169 116.033 40.4274C116.256 40.2377 116.47 40.037 116.674 39.8258C116.878 39.6147 117.071 39.3934 117.252 39.1629C117.434 38.9323 117.604 38.6928 117.762 38.4451C117.92 38.1975 118.066 37.942 118.198 37.6798C118.331 37.4174 118.451 37.1486 118.557 36.8743C118.663 36.6 118.755 36.3206 118.833 36.037C118.911 35.7535 118.975 35.4662 119.025 35.1762C119.075 34.8863 119.11 34.594 119.13 34.3006C119.145 34.0927 119.153 33.8844 119.153 33.676C119.153 33.3817 119.138 33.0876 119.109 32.7948C119.08 32.502 119.036 32.2109 118.978 31.9225C118.92 31.6341 118.847 31.3488 118.761 31.0677C118.674 30.7865 118.574 30.5098 118.46 30.2387C118.346 29.9675 118.219 29.7022 118.079 29.4438C117.939 29.1855 117.786 28.9344 117.621 28.6914C117.455 28.4484 117.278 28.214 117.09 27.9888C116.901 27.7637 116.702 27.5481 116.493 27.343C116.283 27.138 116.063 26.9437 115.834 26.7608C115.605 26.5779 115.367 26.4067 115.121 26.2478C114.875 26.0887 114.621 25.9421 114.36 25.8086C114.099 25.675 113.832 25.5546 113.56 25.4479C113.288 25.3412 113.01 25.2484 112.728 25.1697C112.447 25.0909 112.161 25.0264 111.873 24.9764C111.585 24.9265 111.295 24.891 111.003 24.8703C110.796 24.8555 110.589 24.8477 110.382 24.8477Z" fill="url(#paint1_radial_9_19)"/>
<path d="M65.0799 0.130248C61.0747 0.123789 57.5004 0.140395 54.2896 0.185604L45.6814 0.416264C43.1312 0.52698 40.8781 0.671363 38.8557 0.858198C37.8445 0.951384 36.8905 1.05564 35.9863 1.17051C35.1258 1.27896 34.2678 1.40524 33.4126 1.54926C32.5983 1.68766 31.8256 1.83712 31.0847 1.9995C30.3439 2.16189 29.6362 2.33719 28.9534 2.52541C28.286 2.70946 27.6237 2.91191 26.9675 3.13251C26.3244 3.34933 25.697 3.57907 25.0774 3.82449C23.8383 4.31534 22.6297 4.86614 21.385 5.48339C20.4273 5.95855 19.5425 6.4397 18.702 6.949C17.8615 7.4583 17.0652 7.9962 16.2856 8.58208C15.4827 9.18837 14.7088 9.83217 13.9666 10.5114C13.1906 11.2181 12.3981 11.9954 11.5746 12.8641C10.5399 13.9496 9.64072 14.9617 8.84263 15.9549C8.44359 16.4513 8.06992 16.9422 7.71794 17.4358C7.36984 17.9222 7.03707 18.4195 6.7201 18.9267C6.40641 19.4296 6.10932 19.9417 5.82514 20.4685C5.53654 21.0044 5.26378 21.5487 5.00722 22.1006C4.48224 23.2281 3.99232 24.4423 3.50332 25.7977C3.14055 26.7996 2.8157 27.815 2.52947 28.8414C2.23746 29.8905 1.97774 30.988 1.74615 32.1749C1.51457 33.3619 1.31251 34.6384 1.1349 36.05C0.943508 37.5974 0.790611 39.1493 0.676348 40.7043C0.547179 42.4139 0.440153 44.2952 0.352502 46.3891L0.144909 53.3514L0.0332688 61.8383L0.000976562 72.0966L0.0955471 87.0143L0.390792 98.3166L0.618222 102.731L0.902396 106.39C0.993491 107.376 1.10747 108.359 1.24424 109.34C1.36879 110.211 1.50258 110.973 1.64651 111.633C1.93856 112.974 2.2839 114.303 2.68171 115.617C3.06261 116.875 3.4982 118.115 3.98724 119.335C4.46794 120.53 4.99384 121.682 5.56588 122.791C6.13792 123.9 6.75608 124.966 7.42039 125.99C8.08469 127.013 8.79512 127.995 9.55353 128.935C10.3111 129.875 11.1169 130.774 11.9677 131.631C12.8197 132.489 13.7184 133.305 14.6655 134.081C15.6237 134.866 16.6199 135.604 17.6502 136.291C18.6065 136.93 19.5527 137.516 20.5058 138.053C21.4588 138.591 22.4202 139.078 23.4084 139.522C24.3965 139.965 25.4096 140.364 26.4679 140.723C27.5261 141.082 28.6287 141.401 29.794 141.684C30.9593 141.968 32.1928 142.216 33.4984 142.433C34.8039 142.65 36.1994 142.836 37.6904 142.996C39.1814 143.156 40.772 143.288 42.4812 143.399C44.1904 143.51 46.0172 143.598 47.9801 143.669C51.0124 143.779 55.6025 143.843 60.8957 143.868L78.0314 143.833L94.2579 143.606L100.428 143.432L104.447 143.226C105.31 143.155 106.154 143.072 106.969 142.975C107.784 142.878 108.587 142.767 109.37 142.64C110.152 142.514 110.917 142.373 111.668 142.216C112.411 142.061 113.15 141.888 113.884 141.698C114.611 141.513 115.328 141.303 116.038 141.08C116.747 140.858 117.45 140.617 118.148 140.358C118.85 140.098 119.545 139.821 120.234 139.528C120.927 139.232 121.619 138.917 122.314 138.582C123.381 138.068 124.24 137.639 124.994 137.221C125.704 136.832 126.387 136.397 127.04 135.918C127.684 135.444 128.324 134.904 129.062 134.224C129.8 133.544 130.637 132.725 131.672 131.689C132.583 130.779 133.35 129.988 134.012 129.269C134.674 128.55 135.232 127.903 135.721 127.279C136.187 126.687 136.621 126.071 137.022 125.433C137.413 124.81 137.773 124.163 138.139 123.446C138.691 122.367 139.182 121.367 139.621 120.402C140.048 119.473 140.438 118.526 140.79 117.566C141.137 116.613 141.438 115.644 141.691 114.662C141.951 113.652 142.175 112.585 142.369 111.415C142.562 110.245 142.726 108.972 142.868 107.55C143.01 106.129 143.131 104.557 143.237 102.792L143.519 96.8653L143.76 89.4948L143.933 81.2833L143.999 72.6973L143.845 55.8337L143.639 48.2805L143.358 41.7953L143.007 36.7392C142.88 35.3322 142.742 34.2241 142.597 33.4749C142.435 32.6471 142.255 31.8232 142.056 31.0036C141.862 30.2062 141.649 29.4136 141.417 28.6265C141.191 27.8596 140.945 27.0986 140.68 26.3443C140.418 25.5993 140.14 24.8699 139.849 24.1563C139.559 23.4426 139.244 22.7456 138.917 22.0633C138.589 21.381 138.246 20.7153 137.886 20.0648C137.525 19.4144 137.15 18.7801 136.757 18.1614C136.365 17.5428 135.956 16.9398 135.53 16.353C135.107 15.7681 134.665 15.1966 134.206 14.6392C133.749 14.085 133.275 13.5453 132.784 13.0209C132.294 12.4973 131.787 11.9893 131.265 11.4977C130.742 11.0059 130.204 10.5298 129.649 10.0694C129.091 9.60746 128.52 9.16299 127.934 8.73662C127.343 8.30589 126.739 7.89329 126.122 7.49937C125.497 7.09984 124.861 6.71893 124.213 6.35713C123.555 5.98928 122.885 5.64037 122.207 5.31086C121.08 4.76327 120.038 4.27751 119.016 3.84664C118.01 3.41902 116.985 3.03923 115.944 2.70856C114.897 2.37871 113.807 2.09593 112.608 1.85189C111.408 1.60785 110.1 1.40441 108.62 1.23141C107.14 1.05842 105.487 0.918643 103.596 0.802391C101.706 0.686138 99.5792 0.59479 97.1513 0.520979L88.9001 0.336454L78.4572 0.213282L65.0845 0.131163L65.0799 0.130248ZM72.025 12.8175L91.3096 12.9273L98.5846 13.0675C100.588 13.1238 102.117 13.1898 103.013 13.2659C104.181 13.3642 105.292 13.4873 106.356 13.635C107.376 13.7759 108.392 13.9511 109.4 14.1604C110.369 14.3634 111.293 14.594 112.178 14.8542C113.062 15.1144 113.907 15.406 114.717 15.7284C115.528 16.0509 116.303 16.4056 117.049 16.7941C117.789 17.1796 118.508 17.6038 119.203 18.065C119.895 18.524 120.562 19.0186 121.21 19.5514C121.857 20.0842 122.485 20.6553 123.098 21.2661C123.746 21.9106 124.343 22.567 124.893 23.2442C125.441 23.9173 125.949 24.6227 126.412 25.3566C126.881 26.101 127.303 26.8737 127.677 27.6701C128.059 28.4821 128.402 29.3401 128.71 30.2521C129.019 31.1642 129.293 32.1334 129.536 33.1691C129.791 34.2671 130.004 35.3743 130.176 36.4883C130.36 37.6693 130.518 38.9287 130.652 40.2771C130.785 41.6255 130.896 43.0635 130.987 44.602C131.06 45.836 131.124 47.4645 131.178 49.3877L131.313 55.9454L131.416 72.0085L131.299 88.0564L131.158 94.5952L130.963 99.3509C130.829 101.578 130.687 103.45 130.517 105.079C130.432 105.894 130.339 106.648 130.237 107.355C130.141 108.023 130.027 108.688 129.896 109.35C129.776 109.954 129.637 110.554 129.478 111.15C129.327 111.717 129.156 112.28 128.967 112.837C128.776 113.396 128.569 113.949 128.345 114.495C128.108 115.073 127.858 115.644 127.595 116.21C127.361 116.715 127.115 117.207 126.855 117.685C126.598 118.159 126.324 118.623 126.036 119.078C125.75 119.529 125.45 119.967 125.136 120.391C124.824 120.813 124.497 121.224 124.155 121.623C123.815 122.021 123.46 122.405 123.091 122.777C122.722 123.148 122.339 123.506 121.942 123.852C121.546 124.198 121.134 124.531 120.708 124.851C120.283 125.171 119.842 125.478 119.387 125.772C118.931 126.067 118.462 126.349 117.977 126.619C117.492 126.888 116.992 127.145 116.478 127.39C115.954 127.639 115.424 127.872 114.886 128.089C114.331 128.313 113.77 128.521 113.203 128.714C112.049 129.107 110.833 129.452 109.552 129.749C108.218 130.058 106.871 130.31 105.515 130.505C104.993 130.581 103.795 130.653 102.079 130.719L95.5394 130.901L76.999 131.142L57.5931 131.172L49.9721 131.091L45.0235 130.937L41.3745 130.68C40.2415 130.585 39.1878 130.479 38.2006 130.358C37.2134 130.238 36.294 130.104 35.429 129.952C34.6093 129.811 33.7946 129.641 32.9863 129.445C32.2493 129.266 31.5198 129.057 30.7997 128.819C30.1054 128.588 29.4415 128.334 28.7957 128.055C28.1498 127.776 27.5224 127.47 26.901 127.136C26.2796 126.802 25.6647 126.44 25.0428 126.044C24.5737 125.746 24.1202 125.444 23.6838 125.125C23.2474 124.805 22.8257 124.486 22.4198 124.152C22.0138 123.818 21.624 123.474 21.248 123.12C20.8745 122.767 20.5139 122.401 20.1667 122.023C19.8207 121.645 19.4899 121.257 19.1725 120.855C18.8539 120.451 18.5503 120.035 18.2624 119.609C17.9701 119.176 17.6936 118.733 17.4334 118.281C17.1704 117.824 16.9204 117.352 16.6828 116.864C16.4412 116.368 16.2158 115.864 16.007 115.353C15.7948 114.832 15.5936 114.295 15.4045 113.741C15.0262 112.631 14.6941 111.45 14.4053 110.191C14.1165 108.932 13.8701 107.594 13.6616 106.168C13.4531 104.743 13.2852 103.231 13.1514 101.625C13.0527 100.442 12.9743 98.599 12.9143 96.2739L12.7888 88.0048L12.8349 66.9248L13.198 46.7817L13.4748 39.6848L13.6316 37.3389C13.6861 36.7125 13.7424 36.2484 13.8 35.9697C13.9901 35.0531 14.1815 34.2001 14.3794 33.4016C14.5643 32.6482 14.77 31.9002 14.9962 31.1582C15.2112 30.4579 15.4377 29.8019 15.6799 29.1805C15.9134 28.5785 16.1737 27.9873 16.46 27.4086C16.7395 26.8458 17.0399 26.3069 17.366 25.7824C17.6922 25.2579 18.0442 24.7491 18.428 24.243C18.8118 23.7369 19.2251 23.2373 19.6749 22.7308C20.1247 22.2243 20.6105 21.7127 21.1373 21.1854C21.7513 20.5679 22.3906 19.9761 23.0536 19.4116C23.6797 18.879 24.3325 18.3787 25.0096 17.9128C25.6753 17.4514 26.3581 17.0409 27.069 16.6635C27.7799 16.2862 28.5189 15.9452 29.2962 15.6385C30.0735 15.3317 30.8901 15.0572 31.755 14.8081C32.6638 14.5532 33.5826 14.3357 34.5091 14.1562C35.4834 13.9653 36.5182 13.7987 37.623 13.6534C38.7279 13.5081 39.9033 13.3826 41.16 13.2737C42.0365 13.1981 43.5468 13.1307 45.5356 13.074L52.7737 12.931L72.0283 12.8133L72.025 12.8175Z" fill="url(#paint2_radial_9_19)"/>
<defs>
<radialGradient id="paint0_radial_9_19" cx="0" cy="0" r="1" gradientUnits="userSpaceOnUse" gradientTransform="translate(22.9422 154.346) rotate(-9.53101) scale(304.338 184.731)">
<stop stop-color="#FED576"/>
<stop offset="0.263" stop-color="#F47133"/>
<stop offset="0.609" stop-color="#BC3081"/>
<stop offset="1" stop-color="#4C63D2"/>
</radialGradient>
<radialGradient id="paint1_radial_9_19" cx="0" cy="0" r="1" gradientUnits="userSpaceOnUse" gradientTransform="translate(22.9424 154.346) rotate(-9.53102) scale(304.338 184.731)">
<stop stop-color="#FED576"/>
<stop offset="0.263" stop-color="#F47133"/>
<stop offset="0.609" stop-color="#BC3081"/>
<stop offset="1" stop-color="#4C63D2"/>
</radialGradient>
<radialGradient id="paint2_radial_9_19" cx="0" cy="0" r="1" gradientUnits="userSpaceOnUse" gradientTransform="translate(22.9424 154.346) rotate(-9.53101) scale(304.338 184.731)">
<stop stop-color="#FED576"/>
<stop offset="0.263" stop-color="#F47133"/>
<stop offset="0.609" stop-color="#BC3081"/>
<stop offset="1" stop-color="#4C63D2"/>
</radialGradient>
</defs>
</svg>
