<svg width="171" height="171" viewBox="0 0 171 171" fill="none" xmlns="http://www.w3.org/2000/svg">
<path d="M124.659 102.477C122.516 101.392 112.08 96.2997 110.129 95.573C108.179 94.8783 106.763 94.5149 105.341 96.6577C103.952 98.7472 99.8587 103.53 98.6082 104.925C97.3578 106.319 96.1287 106.426 94.0179 105.48C91.8751 104.396 85.0297 102.167 76.9019 94.8783C70.5535 89.2299 66.3266 82.2724 65.0708 80.1295C63.8204 78.0134 64.9319 76.8164 65.99 75.7583C66.9625 74.7858 68.1328 73.3109 69.2176 72.0284C70.2489 70.7459 70.5803 69.8856 71.3337 68.4962C72.0284 66.9946 71.6704 65.8243 71.1413 64.7663C70.6123 63.7082 66.3533 53.2184 64.5739 49.0396C62.8746 44.8928 61.0951 45.4219 59.7859 45.4219C58.5622 45.3097 57.1407 45.3097 55.7246 45.3097C54.3085 45.3097 51.9947 45.8387 50.0442 47.8693C48.0938 50.0122 42.5843 55.1315 42.5843 65.4877C42.5843 75.8706 50.2099 85.9168 51.2679 87.4184C52.3527 88.8078 66.2678 110.183 87.6161 119.369C92.7087 121.512 96.6631 122.794 99.7518 123.852C104.844 125.466 109.493 125.241 113.165 124.712C117.226 124.044 125.744 119.561 127.529 114.554C129.34 109.515 129.34 105.341 128.811 104.395C128.282 103.423 126.893 102.894 124.75 101.948L124.659 102.477ZM85.9435 154.969H85.8313C73.1933 154.969 60.6997 151.543 49.7877 145.142L47.2281 143.613L20.5093 150.571L27.6913 124.574L25.9653 121.902C18.9222 110.685 15.1656 97.7425 15.1656 84.4419C15.1656 45.6463 46.9235 14.0006 85.997 14.0006C104.925 14.0006 122.682 21.375 136.041 34.7344C149.401 47.9815 156.775 65.7388 156.775 84.5542C156.721 123.323 124.99 154.969 85.9702 154.969H85.9435ZM146.2 24.5759C129.944 8.87597 108.569 0 85.8313 0C38.9346 0 0.748125 38.0208 0.721406 84.7465C0.721406 99.6663 4.617 114.223 12.0769 127.106L0 171L45.144 159.228C57.5843 165.934 71.5849 169.525 85.8367 169.552H85.8634C132.787 169.552 170.973 131.531 171 84.7733C171 62.1478 162.177 40.853 146.093 24.8484L146.2 24.5759Z" fill="url(#paint0_radial_33_346)"/>
<defs>
<radialGradient id="paint0_radial_33_346" cx="0" cy="0" r="1" gradientUnits="userSpaceOnUse" gradientTransform="translate(74.898 100.206) rotate(136.718) scale(96.7757)">
<stop stop-color="#58E170"/>
<stop offset="0.5" stop-color="#2FCD4A"/>
<stop offset="1" stop-color="#06B824"/>
</radialGradient>
</defs>
</svg>
